<svg xmlns="http://www.w3.org/2000/svg" preserveAspectRatio="xMidYMid slice" viewBox="0 0 800 800"><defs><pattern id="a" width="20" height="20" patternTransform="scale(40)" patternUnits="userSpaceOnUse" shape-rendering="crispEdges"><path fill="hsl(0, 0%, 100%)" d="M0 0h1v1H0zM1 0h1v1H1zM2 0h1v1H2zM3 0h1v1H3zM4 0h1v1H4zM5 0h1v1H5zM6 0h1v1H6z"/><path fill="hsl(197, 100%, 34%)" d="M7 0h1v1H7zM8 0h1v1H8z"/><path fill="hsl(0, 0%, 100%)" d="M9 0h1v1H9zM10 0h1v1h-1zM11 0h1v1h-1zM12 0h1v1h-1zM13 0h1v1h-1zM14 0h1v1h-1zM15 0h1v1h-1zM16 0h1v1h-1zM17 0h1v1h-1zM18 0h1v1h-1zM19 0h1v1h-1zM0 1h1v1H0zM1 1h1v1H1zM2 1h1v1H2zM3 1h1v1H3zM4 1h1v1H4z"/><path fill="hsl(197, 100%, 34%)" d="M5 1h1v1H5zM6 1h1v1H6z"/><path fill="hsl(0, 0%, 100%)" d="M7 1h1v1H7zM8 1h1v1H8z"/><path fill="hsl(197, 100%, 34%)" d="M9 1h1v1H9zM10 1h1v1h-1z"/><path fill="hsl(0, 0%, 100%)" d="M11 1h1v1h-1zM12 1h1v1h-1zM13 1h1v1h-1zM14 1h1v1h-1zM15 1h1v1h-1zM16 1h1v1h-1zM17 1h1v1h-1zM18 1h1v1h-1zM19 1h1v1h-1zM0 2h1v1H0zM1 2h1v1H1zM2 2h1v1H2z"/><path fill="hsl(197, 100%, 34%)" d="M3 2h1v1H3zM4 2h1v1H4z"/><path fill="hsl(0, 0%, 100%)" d="M5 2h1v1H5zM6 2h1v1H6zM7 2h1v1H7zM8 2h1v1H8z"/><path fill="hsl(197, 100%, 34%)" d="M9 2h1v1H9zM10 2h1v1h-1z"/><path fill="hsl(0, 0%, 100%)" d="M11 2h1v1h-1zM12 2h1v1h-1zM13 2h1v1h-1zM14 2h1v1h-1zM15 2h1v1h-1zM16 2h1v1h-1zM17 2h1v1h-1zM18 2h1v1h-1zM19 2h1v1h-1zM0 3h1v1H0z"/><path fill="hsl(197, 100%, 34%)" d="M1 3h1v1H1zM2 3h1v1H2z"/><path fill="hsl(0, 0%, 100%)" d="M3 3h1v1H3zM4 3h1v1H4zM5 3h1v1H5zM6 3h1v1H6zM7 3h1v1H7zM8 3h1v1H8z"/><path fill="hsl(197, 100%, 34%)" d="M9 3h1v1H9zM10 3h1v1h-1z"/><path fill="hsl(0, 0%, 100%)" d="M11 3h1v1h-1zM12 3h1v1h-1zM13 3h1v1h-1zM14 3h1v1h-1zM15 3h1v1h-1zM16 3h1v1h-1zM17 3h1v1h-1zM18 3h1v1h-1zM19 3h1v1h-1z"/><path fill="hsl(197, 100%, 34%)" d="M0 4h1v1H0z"/><path fill="hsl(0, 0%, 100%)" d="M1 4h1v1H1zM2 4h1v1H2zM3 4h1v1H3zM4 4h1v1H4zM5 4h1v1H5zM6 4h1v1H6zM7 4h1v1H7zM8 4h1v1H8z"/><path fill="hsl(197, 100%, 34%)" d="M9 4h1v1H9zM10 4h1v1h-1z"/><path fill="hsl(0, 0%, 100%)" d="M11 4h1v1h-1zM12 4h1v1h-1zM13 4h1v1h-1zM14 4h1v1h-1zM15 4h1v1h-1zM16 4h1v1h-1zM17 4h1v1h-1zM18 4h1v1h-1z"/><path fill="hsl(197, 100%, 34%)" d="M19 4h1v1h-1z"/><path fill="hsl(0, 0%, 100%)" d="M0 5h1v1H0z"/><path fill="hsl(197, 100%, 34%)" d="M1 5h1v1H1z"/><path fill="hsl(0, 0%, 100%)" d="M2 5h1v1H2zM3 5h1v1H3zM4 5h1v1H4zM5 5h1v1H5zM6 5h1v1H6zM7 5h1v1H7zM8 5h1v1H8z"/><path fill="hsl(197, 100%, 34%)" d="M9 5h1v1H9zM10 5h1v1h-1z"/><path fill="hsl(0, 0%, 100%)" d="M11 5h1v1h-1zM12 5h1v1h-1zM13 5h1v1h-1zM14 5h1v1h-1zM15 5h1v1h-1zM16 5h1v1h-1zM17 5h1v1h-1z"/><path fill="hsl(197, 100%, 34%)" d="M18 5h1v1h-1z"/><path fill="hsl(0, 0%, 100%)" d="M19 5h1v1h-1zM0 6h1v1H0zM1 6h1v1H1z"/><path fill="hsl(197, 100%, 34%)" d="M2 6h1v1H2z"/><path fill="hsl(0, 0%, 100%)" d="M3 6h1v1H3zM4 6h1v1H4zM5 6h1v1H5zM6 6h1v1H6zM7 6h1v1H7zM8 6h1v1H8z"/><path fill="hsl(197, 100%, 34%)" d="M9 6h1v1H9zM10 6h1v1h-1z"/><path fill="hsl(0, 0%, 100%)" d="M11 6h1v1h-1zM12 6h1v1h-1zM13 6h1v1h-1zM14 6h1v1h-1zM15 6h1v1h-1zM16 6h1v1h-1z"/><path fill="hsl(197, 100%, 34%)" d="M17 6h1v1h-1z"/><path fill="hsl(0, 0%, 100%)" d="M18 6h1v1h-1zM19 6h1v1h-1zM0 7h1v1H0zM1 7h1v1H1zM2 7h1v1H2z"/><path fill="hsl(197, 100%, 34%)" d="M3 7h1v1H3zM4 7h1v1H4zM5 7h1v1H5zM6 7h1v1H6zM7 7h1v1H7zM8 7h1v1H8zM9 7h1v1H9zM10 7h1v1h-1zM11 7h1v1h-1zM12 7h1v1h-1zM13 7h1v1h-1zM14 7h1v1h-1zM15 7h1v1h-1zM16 7h1v1h-1z"/><path fill="hsl(0, 0%, 100%)" d="M17 7h1v1h-1zM18 7h1v1h-1zM19 7h1v1h-1zM0 8h1v1H0zM1 8h1v1H1zM2 8h1v1H2zM3 8h1v1H3z"/><path fill="hsl(197, 100%, 34%)" d="M4 8h1v1H4z"/><path fill="hsl(0, 0%, 100%)" d="M5 8h1v1H5zM6 8h1v1H6zM7 8h1v1H7zM8 8h1v1H8z"/><path fill="hsl(197, 100%, 34%)" d="M9 8h1v1H9zM10 8h1v1h-1z"/><path fill="hsl(0, 0%, 100%)" d="M11 8h1v1h-1zM12 8h1v1h-1zM13 8h1v1h-1zM14 8h1v1h-1z"/><path fill="hsl(197, 100%, 34%)" d="M15 8h1v1h-1z"/><path fill="hsl(0, 0%, 100%)" d="M16 8h1v1h-1zM17 8h1v1h-1zM18 8h1v1h-1zM19 8h1v1h-1zM0 9h1v1H0zM1 9h1v1H1zM2 9h1v1H2zM3 9h1v1H3zM4 9h1v1H4z"/><path fill="hsl(197, 100%, 34%)" d="M5 9h1v1H5z"/><path fill="hsl(0, 0%, 100%)" d="M6 9h1v1H6zM7 9h1v1H7zM8 9h1v1H8z"/><path fill="hsl(197, 100%, 34%)" d="M9 9h1v1H9zM10 9h1v1h-1z"/><path fill="hsl(0, 0%, 100%)" d="M11 9h1v1h-1zM12 9h1v1h-1zM13 9h1v1h-1z"/><path fill="hsl(197, 100%, 34%)" d="M14 9h1v1h-1z"/><path fill="hsl(0, 0%, 100%)" d="M15 9h1v1h-1zM16 9h1v1h-1zM17 9h1v1h-1zM18 9h1v1h-1zM19 9h1v1h-1zM0 10h1v1H0zM1 10h1v1H1zM2 10h1v1H2zM3 10h1v1H3zM4 10h1v1H4z"/><path fill="hsl(197, 100%, 34%)" d="M5 10h1v1H5z"/><path fill="hsl(0, 0%, 100%)" d="M6 10h1v1H6zM7 10h1v1H7zM8 10h1v1H8z"/><path fill="hsl(197, 100%, 34%)" d="M9 10h1v1H9zM10 10h1v1h-1z"/><path fill="hsl(0, 0%, 100%)" d="M11 10h1v1h-1zM12 10h1v1h-1zM13 10h1v1h-1z"/><path fill="hsl(197, 100%, 34%)" d="M14 10h1v1h-1z"/><path fill="hsl(0, 0%, 100%)" d="M15 10h1v1h-1zM16 10h1v1h-1zM17 10h1v1h-1zM18 10h1v1h-1zM19 10h1v1h-1zM0 11h1v1H0zM1 11h1v1H1zM2 11h1v1H2zM3 11h1v1H3z"/><path fill="hsl(197, 100%, 34%)" d="M4 11h1v1H4z"/><path fill="hsl(0, 0%, 100%)" d="M5 11h1v1H5zM6 11h1v1H6zM7 11h1v1H7zM8 11h1v1H8z"/><path fill="hsl(197, 100%, 34%)" d="M9 11h1v1H9zM10 11h1v1h-1z"/><path fill="hsl(0, 0%, 100%)" d="M11 11h1v1h-1zM12 11h1v1h-1zM13 11h1v1h-1zM14 11h1v1h-1z"/><path fill="hsl(197, 100%, 34%)" d="M15 11h1v1h-1z"/><path fill="hsl(0, 0%, 100%)" d="M16 11h1v1h-1zM17 11h1v1h-1zM18 11h1v1h-1zM19 11h1v1h-1zM0 12h1v1H0zM1 12h1v1H1zM2 12h1v1H2z"/><path fill="hsl(197, 100%, 34%)" d="M3 12h1v1H3zM4 12h1v1H4zM5 12h1v1H5zM6 12h1v1H6zM7 12h1v1H7zM8 12h1v1H8zM9 12h1v1H9zM10 12h1v1h-1zM11 12h1v1h-1zM12 12h1v1h-1zM13 12h1v1h-1zM14 12h1v1h-1zM15 12h1v1h-1zM16 12h1v1h-1z"/><path fill="hsl(0, 0%, 100%)" d="M17 12h1v1h-1zM18 12h1v1h-1zM19 12h1v1h-1zM0 13h1v1H0zM1 13h1v1H1z"/><path fill="hsl(197, 100%, 34%)" d="M2 13h1v1H2z"/><path fill="hsl(0, 0%, 100%)" d="M3 13h1v1H3zM4 13h1v1H4zM5 13h1v1H5zM6 13h1v1H6zM7 13h1v1H7zM8 13h1v1H8z"/><path fill="hsl(197, 100%, 34%)" d="M9 13h1v1H9zM10 13h1v1h-1z"/><path fill="hsl(0, 0%, 100%)" d="M11 13h1v1h-1zM12 13h1v1h-1zM13 13h1v1h-1zM14 13h1v1h-1zM15 13h1v1h-1zM16 13h1v1h-1z"/><path fill="hsl(197, 100%, 34%)" d="M17 13h1v1h-1z"/><path fill="hsl(0, 0%, 100%)" d="M18 13h1v1h-1zM19 13h1v1h-1zM0 14h1v1H0z"/><path fill="hsl(197, 100%, 34%)" d="M1 14h1v1H1z"/><path fill="hsl(0, 0%, 100%)" d="M2 14h1v1H2zM3 14h1v1H3zM4 14h1v1H4zM5 14h1v1H5zM6 14h1v1H6zM7 14h1v1H7zM8 14h1v1H8z"/><path fill="hsl(197, 100%, 34%)" d="M9 14h1v1H9zM10 14h1v1h-1z"/><path fill="hsl(0, 0%, 100%)" d="M11 14h1v1h-1zM12 14h1v1h-1zM13 14h1v1h-1zM14 14h1v1h-1zM15 14h1v1h-1zM16 14h1v1h-1zM17 14h1v1h-1z"/><path fill="hsl(197, 100%, 34%)" d="M18 14h1v1h-1z"/><path fill="hsl(0, 0%, 100%)" d="M19 14h1v1h-1z"/><path fill="hsl(197, 100%, 34%)" d="M0 15h1v1H0z"/><path fill="hsl(0, 0%, 100%)" d="M1 15h1v1H1zM2 15h1v1H2zM3 15h1v1H3zM4 15h1v1H4zM5 15h1v1H5zM6 15h1v1H6zM7 15h1v1H7zM8 15h1v1H8z"/><path fill="hsl(197, 100%, 34%)" d="M9 15h1v1H9zM10 15h1v1h-1z"/><path fill="hsl(0, 0%, 100%)" d="M11 15h1v1h-1zM12 15h1v1h-1zM13 15h1v1h-1zM14 15h1v1h-1zM15 15h1v1h-1zM16 15h1v1h-1zM17 15h1v1h-1zM18 15h1v1h-1z"/><path fill="hsl(197, 100%, 34%)" d="M19 15h1v1h-1z"/><path fill="hsl(0, 0%, 100%)" d="M0 16h1v1H0zM1 16h1v1H1zM2 16h1v1H2zM3 16h1v1H3zM4 16h1v1H4zM5 16h1v1H5zM6 16h1v1H6zM7 16h1v1H7zM8 16h1v1H8z"/><path fill="hsl(197, 100%, 34%)" d="M9 16h1v1H9zM10 16h1v1h-1z"/><path fill="hsl(0, 0%, 100%)" d="M11 16h1v1h-1zM12 16h1v1h-1zM13 16h1v1h-1zM14 16h1v1h-1zM15 16h1v1h-1zM16 16h1v1h-1zM17 16h1v1h-1zM18 16h1v1h-1zM19 16h1v1h-1zM0 17h1v1H0zM1 17h1v1H1zM2 17h1v1H2zM3 17h1v1H3zM4 17h1v1H4zM5 17h1v1H5zM6 17h1v1H6zM7 17h1v1H7zM8 17h1v1H8z"/><path fill="hsl(197, 100%, 34%)" d="M9 17h1v1H9zM10 17h1v1h-1z"/><path fill="hsl(0, 0%, 100%)" d="M11 17h1v1h-1zM12 17h1v1h-1zM13 17h1v1h-1zM14 17h1v1h-1zM15 17h1v1h-1zM16 17h1v1h-1zM17 17h1v1h-1zM18 17h1v1h-1zM19 17h1v1h-1zM0 18h1v1H0zM1 18h1v1H1zM2 18h1v1H2zM3 18h1v1H3zM4 18h1v1H4zM5 18h1v1H5zM6 18h1v1H6zM7 18h1v1H7zM8 18h1v1H8z"/><path fill="hsl(197, 100%, 34%)" d="M9 18h1v1H9zM10 18h1v1h-1z"/><path fill="hsl(0, 0%, 100%)" d="M11 18h1v1h-1zM12 18h1v1h-1zM13 18h1v1h-1zM14 18h1v1h-1zM15 18h1v1h-1zM16 18h1v1h-1zM17 18h1v1h-1zM18 18h1v1h-1zM19 18h1v1h-1zM0 19h1v1H0zM1 19h1v1H1zM2 19h1v1H2zM3 19h1v1H3zM4 19h1v1H4zM5 19h1v1H5zM6 19h1v1H6zM7 19h1v1H7zM8 19h1v1H8zM9 19h1v1H9zM10 19h1v1h-1zM11 19h1v1h-1zM12 19h1v1h-1zM13 19h1v1h-1zM14 19h1v1h-1zM15 19h1v1h-1zM16 19h1v1h-1zM17 19h1v1h-1zM18 19h1v1h-1zM19 19h1v1h-1z"/></pattern></defs><rect width="100%" height="100%" fill="url(#a)"/></svg>